<?xml version="1.0" encoding="utf-8"?>
<!-- Generator: Adobe Illustrator 16.0.0, SVG Export Plug-In . SVG Version: 6.00 Build 0)  -->
<!DOCTYPE svg PUBLIC "-//W3C//DTD SVG 1.1//EN" "http://www.w3.org/Graphics/SVG/1.1/DTD/svg11.dtd">
<svg version="1.1" id="Layer_1" xmlns="http://www.w3.org/2000/svg" xmlns:xlink="http://www.w3.org/1999/xlink" x="0px" y="0px"
	 width="1200px" height="800px" viewBox="0 0 1200 800" enable-background="new 0 0 1200 800" xml:space="preserve">
<path fill="#FFFFFF" d="M588.078,231.656L300,468.922V725c0,13.807,11.193,25,25,25l175.094-0.453
	c13.759-0.068,24.875-11.241,24.875-25V575c0-13.807,11.192-25,25-25h100c13.807,0,25,11.193,25,25v149.438
	c-0.043,13.807,11.114,25.035,24.922,25.078c0.026,0,0.052,0,0.078,0L875,750c13.808,0,25-11.193,25-25V468.75L611.984,231.656
	C605.008,226.033,595.055,226.033,588.078,231.656z M1043.125,392.922L912.5,285.25V68.828c0-10.355-8.395-18.75-18.75-18.75h-87.5
	c-10.355,0-18.75,8.395-18.75,18.75v113.453L647.609,67.188c-27.687-22.783-67.626-22.783-95.313,0L156.781,392.922
	c-7.982,6.598-9.104,18.416-2.507,26.397c0.002,0.003,0.004,0.006,0.007,0.009l39.844,48.438c6.578,7.998,18.394,9.149,26.392,2.572
	c0.01-0.009,0.02-0.017,0.03-0.025l367.531-302.719c6.977-5.624,16.93-5.624,23.906,0l367.547,302.719
	c7.978,6.602,19.797,5.486,26.399-2.491c0.002-0.003,0.005-0.006,0.007-0.009l39.844-48.438c6.575-8,5.42-19.815-2.58-26.391
	C1043.176,392.964,1043.15,392.942,1043.125,392.922z"/>
</svg>
